<?xml version="1.0"?>
<svg xmlns="http://www.w3.org/2000/svg" id="Line_cutting_stroke_ex" data-name="Line cutting stroke ex" width="512" height="512" viewBox="0 0 512 512"><g><path d="M478,200H458a18.02,18.02,0,0,0-18,18v6h-8a8,8,0,0,0-8-8H376a8,8,0,0,0-7.8911,6.6846L367.89,224H360v-6a18.02,18.02,0,0,0-18-18H322a17.9953,17.9953,0,0,0-14.8911,7.8983l-5.0278-2.2854-4.08-20.3995,7.89-4.5088A28.0606,28.0606,0,0,0,320,156.3936V112h8a8,8,0,0,0,8-8V54a38.0433,38.0433,0,0,0-38-38H212a28.0314,28.0314,0,0,0-28,28V70a18.02,18.02,0,0,0,18,18h40.6724A38.0621,38.0621,0,0,0,278,112h26v44.3936a12.0265,12.0265,0,0,1-6.0464,10.4189l-36,20.5713a12.0529,12.0529,0,0,1-11.9077,0L214.0459,166.812A12.0256,12.0256,0,0,1,208,156.3936V104H192v52.3936a28.06,28.06,0,0,0,14.1079,24.3105l7.8909,4.5092-3.9135,19.5675-5.8291,2.2419A17.981,17.981,0,0,0,190,200H170a18.02,18.02,0,0,0-18,18v6h-7.89l-.2193-1.3154A8,8,0,0,0,136,216H88a8,8,0,0,0-8,8H72v-6a18.02,18.02,0,0,0-18-18H34a18.02,18.02,0,0,0-18,18v60a18.02,18.02,0,0,0,18,18H54a18.02,18.02,0,0,0,18-18v-6h8a7.9986,7.9986,0,0,0,2.3433,5.6567l21.3979,21.3985-7.7178,100.331a8,8,0,0,0,2.32,6.2705l23.26,23.26a27.8431,27.8431,0,0,0,19.7344,8.22,28.1871,28.1871,0,0,0,8.9189-1.4555l14.2291-4.7431-12.295,55.327A8,8,0,0,0,160,496h40V480H169.9731l12.2139-54.963,4.3428-1.4476a8,8,0,0,0,5.06-10.1192l-31.8013-95.4043L154.6853,287.45A18.0051,18.0051,0,0,0,170,296h20a18.02,18.02,0,0,0,18-18V222.7253l2.4641-.9477,39.8792,39.8791a7.9993,7.9993,0,0,0,11.3134,0l39.08-39.08L304,224.06V278a18.02,18.02,0,0,0,18,18h20a18.0051,18.0051,0,0,0,15.3147-8.55l-5.1028,30.6164L320.4106,413.47a8,8,0,0,0,5.06,10.1192l4.3428,1.4476L342.0269,480H216v16H352a8,8,0,0,0,7.81-9.7354l-12.295-55.327,14.2291,4.7431a28.1589,28.1589,0,0,0,8.9189,1.4555,27.8473,27.8473,0,0,0,19.7344-8.22l23.26-23.26a8,8,0,0,0,2.32-6.2705l-2.4615-32-15.9531,1.2276,2.1792,28.331L379.0835,417.603a11.9373,11.9373,0,0,1-12.28,2.899L338.1191,410.94l29.47-88.4106a7.9943,7.9943,0,0,0,.3017-1.2144L382.7769,232H416v36.686l-21.6567,21.6573a8,8,0,0,0-2.32,6.2705l4.3077,56,15.9531-1.2276-4.0254-52.331,21.3979-21.3985A7.9986,7.9986,0,0,0,432,272h8v6a18.02,18.02,0,0,0,18,18h20a18.02,18.02,0,0,0,18-18V218A18.02,18.02,0,0,0,478,200ZM200,70V44a12.0137,12.0137,0,0,1,12-12h28V72H202A2.002,2.002,0,0,1,200,70Zm56,4V32h42a22.0248,22.0248,0,0,1,22,22V96H278A22.0248,22.0248,0,0,1,256,74ZM365.223,240l-2.6667,16H360V240ZM152,240v16h-2.5563l-2.6667-16ZM56,278a2.002,2.002,0,0,1-2,2H34a2.002,2.002,0,0,1-2-2V218a2.002,2.002,0,0,1,2-2H54a2.002,2.002,0,0,1,2,2Zm16-22V240h8v16ZM173.8809,410.94l-28.6841,9.5616a11.9364,11.9364,0,0,1-12.28-2.899l-20.6577-20.6582,7.7178-100.331a8,8,0,0,0-2.32-6.2705L96,268.686V232h33.2231l14.8858,89.3154a7.9943,7.9943,0,0,0,.3017,1.2144ZM192,278a2.002,2.002,0,0,1-2,2H170a2.002,2.002,0,0,1-2-2V218a2.002,2.002,0,0,1,2-2h20a2.002,2.002,0,0,1,2,2Zm64-33.3135-31.3159-31.3159,3.958-19.79,13.4663,7.6953a28.116,28.116,0,0,0,27.7837,0l13.4657-7.6948,3.9581,19.79ZM344,278a2.002,2.002,0,0,1-2,2H322a2.002,2.002,0,0,1-2-2V218a2.002,2.002,0,0,1,2-2h20a2.002,2.002,0,0,1,2,2Zm88-22V240h8v16Zm48,22a2.002,2.002,0,0,1-2,2H458a2.002,2.002,0,0,1-2-2V218a2.002,2.002,0,0,1,2-2h20a2.002,2.002,0,0,1,2,2Z"/><path d="M223.5894,397.47l-16-48-15.1788,5.06,15.3282,45.9844-7.5835,37.917,15.6894,3.1376,8-40A7.9983,7.9983,0,0,0,223.5894,397.47Z"/><rect x="288" y="336.0002" width="40" height="15.9996" transform="translate(-151.9995 384.0056) rotate(-53.1308)"/><rect x="288" y="414.4593" width="15.9999" height="43.0813" transform="translate(-140.7588 141.1208) rotate(-21.8021)"/></g></svg>
