<?xml version="1.0"?>
<svg xmlns="http://www.w3.org/2000/svg" viewBox="0 0 512 512" width="512" height="512"><g id="outline"><path d="M24.155,393.569a8,8,0,0,0,10.231,6.067L81.543,384.9a38.677,38.677,0,0,0,19.031,44.984c.234.123.474.236.719.336l76.031,31.052,7.086,21.259A8,8,0,0,0,192,488h80a7.99,7.99,0,0,0,3.024-.594l140.022-57.187c.245-.1.485-.213.719-.336a38.682,38.682,0,0,0,19.432-43.5l42.417,13.256a8,8,0,0,0,10.231-6.067l8-40a8,8,0,0,0-5.315-9.158l-24-8a7.992,7.992,0,0,0-5.06,0l-20.425,6.808-58.067-36.292-19.2-76.8a43.948,43.948,0,0,0-23.007-28.683c-.356-.178-52.769-16-52.769-16V164.587a8.105,8.105,0,0,0-.041-.813A47.885,47.885,0,0,0,304,128V96a47.9,47.9,0,0,0-16.713-36.356l-2.23-11.155a40.415,40.415,0,0,0-68.208-20.652A111.423,111.423,0,0,0,184,107.142V109.4a41.62,41.62,0,0,1-18.57,34.7l-1.868,1.244a8,8,0,0,0,.86,13.812l6.2,3.1a57.814,57.814,0,0,0,51.726-.069q.807.8,1.651,1.552v21.7s-52.413,15.821-52.769,16a43.948,43.948,0,0,0-23.007,28.683l-19.2,76.8L70.955,343.219,50.53,336.411a7.992,7.992,0,0,0-5.06,0l-24,8a8,8,0,0,0-5.315,9.158Zm158.4,52.558-74.823-30.56a22.653,22.653,0,0,1,5.719-41.893,23.025,23.025,0,0,1,4.729-.61h.026a22.414,22.414,0,0,1,13.016,3.809c.108.072.218.142.331.209l101.8,60.888-8.843,1.769-21.985-7.328a8,8,0,0,0-8.187,1.932Zm-39.107-80.574,10-3.126a30.152,30.152,0,0,0,17.884-15.219L194.794,300.3,200,306.806v10.808a55.9,55.9,0,0,1-2.874,17.709L192.41,349.47l-7.4,22.209L173.288,383.4ZM197.766,472l-4.613-13.839,9.008-9.008,19.309,6.436a8,8,0,0,0,4.1.256l32.155-6.431L262.242,472Zm63.312-39.574-4.382.876c-.085-.055-.164-.115-.252-.168l-69-41.267,10.21-10.21a8.018,8.018,0,0,0,1.933-3.127L205.766,360H306.233l6.177,18.53a8.018,8.018,0,0,0,1.933,3.127l11.834,11.833Zm38.616-92.043L300.9,344H211.1l1.206-3.618A71.894,71.894,0,0,0,216,317.614V312h80v5.614A71.905,71.905,0,0,0,299.694,340.383ZM312,317.614V306.806l5.206-6.507,23.454,46.909a30.151,30.151,0,0,0,17.885,15.219l12.853,4.016-31.062,18.579-13.344-13.343-7.4-22.209-4.716-14.146A55.909,55.909,0,0,1,312,317.614Zm107.435,84.419A22.459,22.459,0,0,1,408.6,415.567L277.944,468.931l-4.992-24.963,111.83-66.886c.113-.067.223-.137.331-.209a22.653,22.653,0,0,1,34.322,25.16ZM328,237.7V214.017l6.111,1.989a27.97,27.97,0,0,1,14.144,18l19.984,79.936a8,8,0,0,0,3.521,4.844l64,40a8,8,0,0,0,6.77.805L464,352.433l14.771,4.923L473.9,381.712l-52.344-16.357a38.327,38.327,0,0,0-26.225-8.2l-32.013-10a14.069,14.069,0,0,1-8.346-7.1l-26.984-53.968A47.233,47.233,0,0,0,328,237.7ZM288,128a32,32,0,0,1-64,0V97.811a129.032,129.032,0,0,0,64,21.908Zm-9.569,71.845,1.569.314V228l-24,18-24-18V200.159l1.569-.314A8,8,0,0,0,240,192V173.248a47.888,47.888,0,0,0,32,0V192A8,8,0,0,0,278.431,199.845ZM288,96v7.692A112.786,112.786,0,0,1,228.8,81.6a7.953,7.953,0,0,0-1.032-.646A31.994,31.994,0,0,1,288,96Zm-80,0v32a47.7,47.7,0,0,0,4.833,20.971,41.848,41.848,0,0,1-29.693,1.2A57.572,57.572,0,0,0,200,109.4v-2.257a95.526,95.526,0,0,1,28.163-67.991,24.406,24.406,0,0,1,40.749,10.627A47.973,47.973,0,0,0,208,96Zm-9.344,148.438A8,8,0,0,0,200,240V208.988l16-4.7V232a8,8,0,0,0,3.2,6.4l32,24a8,8,0,0,0,9.6,0l32-24A8,8,0,0,0,296,232V204.288l16,4.7V240a8,8,0,0,0,1.344,4.438,31.337,31.337,0,0,1-1.61,37.088L300.155,296h-88.31l-11.579-14.474A31.337,31.337,0,0,1,198.656,244.438ZM48,352.433l21.47,7.156a8,8,0,0,0,6.77-.805l64-40a8,8,0,0,0,3.521-4.844L163.745,234a27.97,27.97,0,0,1,14.144-18L184,214.017V237.7a47.233,47.233,0,0,0,.013,48.389l-26.984,53.968a14.069,14.069,0,0,1-8.345,7.1l-31.928,9.978a38.037,38.037,0,0,0-18.881,6.027c-.44.06-59.774,18.552-59.774,18.552l-4.872-24.356Z"/><path d="M488,184H462.79a39.905,39.905,0,0,0-5.508-12.5l-10.626-15.939a8,8,0,0,0-13.312,0L422.718,171.5A39.905,39.905,0,0,0,417.21,184H392a8,8,0,0,0-7.155,11.578l9.366,18.733A31.825,31.825,0,0,0,422.833,232h34.334a31.825,31.825,0,0,0,28.622-17.689l9.366-18.733A8,8,0,0,0,488,184Zm-79.479,23.155L404.944,200h11.407a39.551,39.551,0,0,0,5.744,15.974A15.9,15.9,0,0,1,408.521,207.155ZM448,194.745a23.84,23.84,0,0,1-7.03,16.971l-.97.97-.971-.971A23.839,23.839,0,0,1,432,194.745v-1.056a23.933,23.933,0,0,1,4.03-13.313l3.97-5.954,3.97,5.954A23.933,23.933,0,0,1,448,193.689Zm23.479,12.41a15.9,15.9,0,0,1-13.574,8.819A39.551,39.551,0,0,0,463.649,200h11.407Z"/><path d="M120,192H94.79a39.905,39.905,0,0,0-5.508-12.5L78.656,163.562a8,8,0,0,0-13.312,0L54.718,179.5A39.905,39.905,0,0,0,49.21,192H24a8,8,0,0,0-7.155,11.578l9.366,18.733A31.825,31.825,0,0,0,54.833,240H89.167a31.825,31.825,0,0,0,28.622-17.689l9.366-18.733A8,8,0,0,0,120,192ZM40.521,215.155,36.944,208H48.351A39.536,39.536,0,0,0,54.1,223.974,15.9,15.9,0,0,1,40.521,215.155ZM80,202.745a23.84,23.84,0,0,1-7.03,16.971l-.97.97-.971-.971A23.839,23.839,0,0,1,64,202.745v-1.056a23.933,23.933,0,0,1,4.03-13.313L72,182.422l3.97,5.954A23.933,23.933,0,0,1,80,201.689Zm23.479,12.41a15.9,15.9,0,0,1-13.574,8.819A39.551,39.551,0,0,0,95.649,208h11.407Z"/></g></svg>
