<?xml version="1.0"?>
<svg xmlns="http://www.w3.org/2000/svg" id="outline" viewBox="0 0 512 512" width="512" height="512"><path d="M56,496H424a7.99977,7.99977,0,0,0,8-8V464a7.99026,7.99026,0,0,0-.23364-1.88892l.00708-.0017-1.22571-5.03913A79.99785,79.99785,0,0,0,395.46338,312.8349L361.89893,174.8476a47.6646,47.6646,0,0,0,23.47363-12.90668l24.9707-24.97071a19.31354,19.31354,0,0,0-27.31347-27.31347L356.68652,136H331.62378a26.73887,26.73887,0,0,0-35.01929-6.55225L285.769,136H251.314l-24.1574-24.1571A32.04316,32.04316,0,0,0,256,80V56a31.99534,31.99534,0,0,0-42.82184-30.11261A35.06484,35.06484,0,0,0,188.68652,16h-.71435a40.09385,40.09385,0,0,0-36.05908,22.28613,24.15987,24.15987,0,0,1-16.98,12.96875l-24.502,4.90039a8.00006,8.00006,0,0,0-1.24023,15.33545l26.54687,9.95508a60.7402,60.7402,0,0,0,21.355,3.86182A62.13393,62.13393,0,0,0,192,74.51855V80a32.10446,32.10446,0,0,0,.30725,4.37927L188.613,88.07355A30.6633,30.6633,0,0,0,160.07355,116.613l-47.5091,47.50909A56.5,56.5,0,0,0,108.88013,240H88a7.99977,7.99977,0,0,0-8,8v32a7.99977,7.99977,0,0,0,8,8h24v30.11353A60.95142,60.95142,0,0,0,72,427.462V456H56a7.99977,7.99977,0,0,0-8,8v24A7.99977,7.99977,0,0,0,56,496Zm68.94409-56H243.05591l8,16H116.94409ZM184,288v-.07159l4.07275,2.37579L160,326.39777V288Zm22.31494,4.91162a7.99953,7.99953,0,0,0-2.28418-11.82178l-26.40454-15.40258,26.03656-26.03656,22.3299,17.36785a36.282,36.282,0,0,1,3.38086,54.29444l-48.00269,48.00268L158.262,354.69391ZM168.9707,140.28418,200.68652,172,188,184.68652,151.31348,148l13.262-13.262A30.84881,30.84881,0,0,0,168.9707,140.28418Zm145.04285,36.95288L339.01,280H312a63.78618,63.78618,0,0,0-17.59314,2.4787l-20.92151-52.30536A47.769,47.769,0,0,0,228.91846,200H195.31384l17.33881-17.339a53.62494,53.62494,0,0,0,42.0954,8.0119Zm38.66272,158.94653,29.13086,119.76075a63.99209,63.99209,0,0,1-29.13086-119.76075ZM280.30615,352v4.9884L264,353.12024V344a48.05436,48.05436,0,0,1,48-48h30.90186l3.89184,16H320.30615A40.04521,40.04521,0,0,0,280.30615,352ZM228.91846,216a31.847,31.847,0,0,1,29.71142,20.11572l21.0669,52.66907a64.47184,64.47184,0,0,0-17.14112,14.62689l-7.052-10.57806A53.04027,53.04027,0,0,0,256,285.65771a51.94527,51.94527,0,0,0-20.18408-41.269L224,235.19849V216ZM240.687,322.62646a52.55456,52.55456,0,0,0,8.27851-10.75628l4.37774,6.56659A63.61583,63.61583,0,0,0,248,344v5.32471l-27.49-6.52124ZM208,216v6.75409L199.31622,216ZM146.62939,368.68408l30.57178,6.11475,6.11475,30.57178-6.29492,6.29492-30.57227-42.80078Zm51.02735,44.97266a7.99967,7.99967,0,0,0,2.188-7.22559l-7.1604-35.802L207.21851,356.095l73.05786,17.33032L280.0376,424H187.31348ZM268.94409,456l-8-16H280v16ZM296,432.0376,296.30212,368h.004V352a24.02687,24.02687,0,0,1,24-24h15.69837a79.95511,79.95511,0,0,0,.0509,128H296ZM398.28735,456,330.1792,176h15.53345L413.8208,456ZM448,392a63.9098,63.9098,0,0,1-21.61646,47.95129L399.6189,329.91852A63.89087,63.89087,0,0,1,448,392ZM360,152a7.99877,7.99877,0,0,0,5.65674-2.34326l28.68652-28.68653a3.31388,3.31388,0,0,1,4.68653,4.68653l-24.97071,24.9707A31.79092,31.79092,0,0,1,351.43164,160H336.00391a24.76333,24.76333,0,0,0,1.21826-7.647c0-.11841-.00745-.235-.009-.353ZM240,80a16,16,0,0,1-32,0v-.001h.001a8.003,8.003,0,0,0,5.65576-2.34277L227.31348,64H240Zm-2.165-32H224a8.00121,8.00121,0,0,0-5.65674,2.34277L208,60.68567V56a15.98644,15.98644,0,0,1,29.835-8ZM141.356,66.46436l-.48584-.18213a40.02527,40.02527,0,0,0,25.354-20.84082A24.18168,24.18168,0,0,1,187.97217,32h.71435a19.16762,19.16762,0,0,1,10.88385,3.36346,31.85471,31.85471,0,0,0-7.42743,17.66565A45.64306,45.64306,0,0,1,141.356,66.46436ZM190.62744,104a14.53177,14.53177,0,0,1,10.34326,4.28418l41.37256,41.37256A7.99877,7.99877,0,0,0,248,152h40a7.99689,7.99689,0,0,0,4.13965-1.1543l12.74316-7.70605a10.76753,10.76753,0,0,1,16.33936,9.21338,8.52319,8.52319,0,0,1-6.67432,8.35644L251.21,175.06934a37.61565,37.61565,0,0,1-34.91357-10.08643L180.28418,128.9707A14.62758,14.62758,0,0,1,190.62744,104Zm-66.74951,71.43555L140,159.31348,176.68652,196l-6.34326,6.34326a8.00031,8.00031,0,0,0,.74512,11.97168l19.84674,15.43646L163.33551,257.351l-31.21539-18.20892a40.55485,40.55485,0,0,1-8.24219-63.70654ZM96,256h33.26587l27.4284,16H96Zm48,32v36.6535l-16-3.79565V288ZM64,379.019a44.98066,44.98066,0,0,1,55.36279-43.76562l28.49237,6.75915-9.8659,12.6847-7.646,7.646a7.99958,7.99958,0,0,0-.853,10.30664L166.16888,424H108.98047A45.0316,45.0316,0,0,1,64,379.019Zm24,57.26081a60.637,60.637,0,0,0,19.08,3.67193L99.05591,456H88ZM64,472H416v8H64Z"/></svg>
